@startuml

package "CoinKeep" {

  abstract Client {
    - name: string
    - email: string
    - password: char
    - data_nascimento: char
    - sexo: string
   
    
  }

  class Receita {
    - name: string
    - value: int
    - date: char
  }

  class Despesa {
    - name: string
    - value: int
    - date: char
    - category: string
  }

  class Meta {
    - name: string
    - probably_date: char
    - expected_date: char
    - goal: string
    - value: int
    - progress: int
    - priority: char
    
  }

  class Relatorio {
    - title: string
    - value: int
    - Content: string
    - graphics: int
  }

  class Planejamento {
    - renda: int
  }
  

 class Comprar_Plano{
  - value: int
  - name: string
 }

  
  Class Criar_Conta{
    - nome: string
    - email: string
    - Data: char
  }
  top to bottom direction
Client "0:1"-up-"1:1" Criar_Conta
Client "0:1"-up-"1:1" Comprar_Plano
Client "0:1"-up-"1:1" Planejamento

Client "0:1"--"1:N" Meta
Client "0:1"--"1:N" Receita
Client "0:1"--"1:N" Despesa
Client "0:1"--"1:1" Relatorio

Meta "0:N"--"0:1" Relatorio
Despesa "0:N"--"0:1" Relatorio
Receita "0:N"--"0:1" Relatorio




}

@enduml